<?xml version="1.0" encoding="UTF-8"?>
<!DOCTYPE svg PUBLIC "-//W3C//DTD SVG 1.1//EN" "http://www.w3.org/Graphics/SVG/1.1/DTD/svg11.dtd">
<svg xmlns="http://www.w3.org/2000/svg" version="1.1" width="115px" height="148px" style="shape-rendering:geometricPrecision; text-rendering:geometricPrecision; image-rendering:optimizeQuality; fill-rule:evenodd; clip-rule:evenodd" xmlns:xlink="http://www.w3.org/1999/xlink">
<g><path style="opacity:1" fill="#3a225e" d="M 79.5,4.5 C 89.8333,4.5 100.167,4.5 110.5,4.5C 110.5,11.8333 110.5,19.1667 110.5,26.5C 109.25,26.5774 108.417,27.244 108,28.5C 107.823,32.3563 107.323,36.023 106.5,39.5C 106.828,28.6536 106.494,17.9869 105.5,7.5C 104.739,6.60908 103.739,5.94242 102.5,5.5C 94.5492,6.63489 86.5492,6.80156 78.5,6C 79.056,5.61742 79.3893,5.11742 79.5,4.5 Z"/></g>
<g><path style="opacity:1" fill="#572367" d="M 110.5,26.5 C 110.5,31.8333 110.5,37.1667 110.5,42.5C 110.167,43.5 109.5,44.1667 108.5,44.5C 107.5,44.5 106.5,44.5 105.5,44.5C 105.5,43.1667 105.5,41.8333 105.5,40.5C 106.167,40.5 106.5,40.1667 106.5,39.5C 107.323,36.023 107.823,32.3563 108,28.5C 108.417,27.244 109.25,26.5774 110.5,26.5 Z"/></g>
<g><path style="opacity:0.837" fill="#654d7d" d="M 110.5,42.5 C 110.5,37.1667 110.5,31.8333 110.5,26.5C 110.5,19.1667 110.5,11.8333 110.5,4.5C 100.167,4.5 89.8333,4.5 79.5,4.5C 76.6122,3.98983 74.2789,4.65649 72.5,6.5C 72.5,14.5 72.5,22.5 72.5,30.5C 72.5,32.5 72.5,34.5 72.5,36.5C 72.1667,36.5 71.8333,36.5 71.5,36.5C 71.0235,25.0044 71.5235,13.6711 73,2.5C 85.2228,3.66483 97.5562,3.66483 110,2.5C 111.151,9.17103 111.651,16.0044 111.5,23C 111.5,29.6755 111.166,36.1755 110.5,42.5 Z"/></g>
<g><path style="opacity:1" fill="#3b2260" d="M 72.5,6.5 C 74.8398,7.57185 75.1731,9.23851 73.5,11.5C 74.0796,14.3106 74.7463,16.9773 75.5,19.5C 75.5,23.5 75.5,27.5 75.5,31.5C 74.7321,30.7375 74.2321,29.7375 74,28.5C 73.7216,29.4158 73.2216,30.0825 72.5,30.5C 72.5,22.5 72.5,14.5 72.5,6.5 Z"/></g>
<g><path style="opacity:1" fill="#36245b" d="M 79.5,4.5 C 79.3893,5.11742 79.056,5.61742 78.5,6C 86.5492,6.80156 94.5492,6.63489 102.5,5.5C 103.739,5.94242 104.739,6.60908 105.5,7.5C 95.8276,7.33353 86.1609,7.5002 76.5,8C 75.5399,11.73 75.2065,15.5633 75.5,19.5C 74.7463,16.9773 74.0796,14.3106 73.5,11.5C 75.1731,9.23851 74.8398,7.57185 72.5,6.5C 74.2789,4.65649 76.6122,3.98983 79.5,4.5 Z"/></g>
<g><path style="opacity:0.92" fill="#80648c" d="M 105.5,7.5 C 106.494,17.9869 106.828,28.6536 106.5,39.5C 106.5,40.1667 106.167,40.5 105.5,40.5C 105.5,29.8333 105.5,19.1667 105.5,8.5C 95.9166,8.18158 86.4166,8.51491 77,9.5C 76.5001,24.1629 76.3334,38.8295 76.5,53.5C 75.5386,51.7354 75.2053,49.7354 75.5,47.5C 75.5,42.1667 75.5,36.8333 75.5,31.5C 75.5,27.5 75.5,23.5 75.5,19.5C 75.2065,15.5633 75.5399,11.73 76.5,8C 86.1609,7.5002 95.8276,7.33353 105.5,7.5 Z"/></g>
<g><path style="opacity:1" fill="#5d2265" d="M 71.5,36.5 C 71.8333,36.5 72.1667,36.5 72.5,36.5C 71.962,38.1172 71.6287,39.7839 71.5,41.5C 59.2794,41.5958 47.2794,41.4292 35.5,41C 36.5,40.1667 37.5,39.3333 38.5,38.5C 49.6593,37.8333 60.6593,37.1666 71.5,36.5 Z"/></g>
<g><path style="opacity:1" fill="#69276f" d="M 75.5,31.5 C 75.5,36.8333 75.5,42.1667 75.5,47.5C 74.5,47.5 73.5,47.5 72.5,47.5C 72.81,50.7131 72.4767,53.7131 71.5,56.5C 71.5,51.8333 71.5,47.1667 71.5,42.5C 71.5,42.1667 71.5,41.8333 71.5,41.5C 71.6287,39.7839 71.962,38.1172 72.5,36.5C 72.5,34.5 72.5,32.5 72.5,30.5C 73.2216,30.0825 73.7216,29.4158 74,28.5C 74.2321,29.7375 74.7321,30.7375 75.5,31.5 Z"/></g>
<g><path style="opacity:1" fill="#9c6998" d="M 71.5,36.5 C 60.6593,37.1666 49.6593,37.8333 38.5,38.5C 37.5,39.3333 36.5,40.1667 35.5,41C 47.2794,41.4292 59.2794,41.5958 71.5,41.5C 71.5,41.8333 71.5,42.1667 71.5,42.5C 61.1613,42.3335 50.828,42.5002 40.5,43C 38.9625,44.7073 37.2959,46.2073 35.5,47.5C 33.4727,47.3379 31.4727,47.5045 29.5,48C 30.5171,49.0495 30.6838,50.2161 30,51.5C 28.9152,50.2644 28.0819,48.9311 27.5,47.5C 30.6293,43.8691 33.9626,40.3691 37.5,37C 48.8284,36.5001 60.1618,36.3335 71.5,36.5 Z"/></g>
<g><path style="opacity:1" fill="#8d3f7b" d="M 105.5,40.5 C 105.5,41.8333 105.5,43.1667 105.5,44.5C 106.5,44.5 107.5,44.5 108.5,44.5C 103.758,49.9085 98.7582,54.9085 93.5,59.5C 93.9118,57.0274 92.9118,55.6941 90.5,55.5C 95.1667,50.1667 100.167,45.1667 105.5,40.5 Z"/></g>
<g><path style="opacity:1" fill="#a75c90" d="M 27.5,47.5 C 28.0819,48.9311 28.9152,50.2644 30,51.5C 30.6838,50.2161 30.5171,49.0495 29.5,48C 31.4727,47.5045 33.4727,47.3379 35.5,47.5C 31.1667,52.5 26.5,57.1667 21.5,61.5C 21.3305,59.088 21.9972,56.9214 23.5,55C 23.1639,53.9701 22.4972,53.4701 21.5,53.5C 23.1667,51.1667 25.1667,49.1667 27.5,47.5 Z"/></g>
<g><path style="opacity:1" fill="#b35089" d="M 21.5,53.5 C 22.4972,53.4701 23.1639,53.9701 23.5,55C 21.9972,56.9214 21.3305,59.088 21.5,61.5C 19.1002,64.9031 16.1002,67.5698 12.5,69.5C 12.9762,67.0069 14.3096,65.0069 16.5,63.5C 15.9953,62.0815 14.9953,61.4148 13.5,61.5C 15.8333,58.5 18.5,55.8333 21.5,53.5 Z"/></g>
<g><path style="opacity:1" fill="#ae327d" d="M 75.5,47.5 C 75.2053,49.7354 75.5386,51.7354 76.5,53.5C 76.1734,58.2137 76.5067,62.8804 77.5,67.5C 81.8535,63.4781 86.1869,59.4781 90.5,55.5C 92.9118,55.6941 93.9118,57.0274 93.5,59.5C 88.4726,64.9584 83.4726,70.2917 78.5,75.5C 78.6602,73.8008 78.4935,72.1341 78,70.5C 76.0211,69.2856 74.5211,67.6189 73.5,65.5C 72.8313,67.6309 72.1646,69.6309 71.5,71.5C 71.5,71.1667 71.5,70.8333 71.5,70.5C 71.5,65.8333 71.5,61.1667 71.5,56.5C 72.4767,53.7131 72.81,50.7131 72.5,47.5C 73.5,47.5 74.5,47.5 75.5,47.5 Z"/></g>
<g><path style="opacity:0.864" fill="#eb8dbd" d="M 12.5,70.5 C 32.077,70.5035 51.7437,70.5035 71.5,70.5C 71.5,70.8333 71.5,71.1667 71.5,71.5C 69.7354,72.4614 67.7354,72.7947 65.5,72.5C 50.8333,72.5 36.1667,72.5 21.5,72.5C 18.8333,72.5 16.1667,72.5 13.5,72.5C 11.5759,72.2893 11.2426,71.6226 12.5,70.5 Z"/></g>
<g><path style="opacity:1" fill="#c7277f" d="M 13.5,61.5 C 14.9953,61.4148 15.9953,62.0815 16.5,63.5C 14.3096,65.0069 12.9762,67.0069 12.5,69.5C 12.5,69.8333 12.5,70.1667 12.5,70.5C 11.2426,71.6226 11.5759,72.2893 13.5,72.5C 10.7699,73.8166 7.93653,73.8166 5,72.5C 4.17858,75.5541 4.34524,78.5541 5.5,81.5C 6.18185,80.7573 6.84851,80.0906 7.5,79.5C 7.66331,81.8568 7.49665,84.1902 7,86.5C 5.85453,87.6843 4.68787,87.6843 3.5,86.5C 3.5,81.8333 3.5,77.1667 3.5,72.5C 6.10086,68.2294 9.43419,64.5628 13.5,61.5 Z"/></g>
<g><path style="opacity:1" fill="#d70c79" d="M 13.5,72.5 C 16.1667,72.5 18.8333,72.5 21.5,72.5C 25.6472,73.3247 29.9805,73.8247 34.5,74C 26.0387,74.9993 17.7053,75.8326 9.5,76.5C 8.83333,76.5 8.5,76.8333 8.5,77.5C 7.66175,77.8417 7.32842,78.5084 7.5,79.5C 6.84851,80.0906 6.18185,80.7573 5.5,81.5C 4.34524,78.5541 4.17858,75.5541 5,72.5C 7.93653,73.8166 10.7699,73.8166 13.5,72.5 Z"/></g>
<g><path style="opacity:1" fill="#ca267e" d="M 21.5,72.5 C 36.1667,72.5 50.8333,72.5 65.5,72.5C 58.9881,73.1666 52.3214,73.8333 45.5,74.5C 56.4798,75.4988 67.4798,75.8321 78.5,75.5C 67.012,76.4949 55.3453,76.8283 43.5,76.5C 42.6787,79.6414 42.1787,82.9748 42,86.5C 41.0138,87.1712 39.8471,87.1712 38.5,86.5C 38.8128,82.9581 38.4794,79.6248 37.5,76.5C 28.1667,76.5 18.8333,76.5 9.5,76.5C 17.7053,75.8326 26.0387,74.9993 34.5,74C 29.9805,73.8247 25.6472,73.3247 21.5,72.5 Z"/></g>
<g><path style="opacity:1" fill="#d40978" d="M 78.5,75.5 C 67.4798,75.8321 56.4798,75.4988 45.5,74.5C 52.3214,73.8333 58.9881,73.1666 65.5,72.5C 67.7354,72.7947 69.7354,72.4614 71.5,71.5C 72.1646,69.6309 72.8313,67.6309 73.5,65.5C 74.5211,67.6189 76.0211,69.2856 78,70.5C 78.4935,72.1341 78.6602,73.8008 78.5,75.5 Z"/></g>
<g><path style="opacity:1" fill="#bc6fa7" d="M 43.5,76.5 C 43.5,82.8333 43.5,89.1667 43.5,95.5C 42.0014,96.6782 41.0014,98.3449 40.5,100.5C 39.8182,99.7573 39.1515,99.0906 38.5,98.5C 38.5,94.5 38.5,90.5 38.5,86.5C 39.8471,87.1712 41.0138,87.1712 42,86.5C 42.1787,82.9748 42.6787,79.6414 43.5,76.5 Z"/></g>
<g><path style="opacity:1" fill="#b569a5" d="M 8.5,77.5 C 8.5,80.8333 8.5,84.1667 8.5,87.5C 7.67526,91.6472 7.17526,95.9805 7,100.5C 6.29602,102.727 5.12936,103.06 3.5,101.5C 3.5,96.5 3.5,91.5 3.5,86.5C 4.68787,87.6843 5.85453,87.6843 7,86.5C 7.49665,84.1902 7.66331,81.8568 7.5,79.5C 7.32842,78.5084 7.66175,77.8417 8.5,77.5 Z"/></g>
<g><path style="opacity:1" fill="#9e84b4" d="M 8.5,87.5 C 8.5,94.1667 8.5,100.833 8.5,107.5C 7.83855,108.718 7.17189,110.051 6.5,111.5C 5.91395,111.291 5.41395,110.957 5,110.5C 4.30404,107.522 3.80404,104.522 3.5,101.5C 5.12936,103.06 6.29602,102.727 7,100.5C 7.17526,95.9805 7.67526,91.6472 8.5,87.5 Z"/></g>
<g><path style="opacity:1" fill="#9082ba" d="M 79.5,107.5 C 79.5,108.833 79.5,110.167 79.5,111.5C 78.209,111.737 77.209,111.404 76.5,110.5C 76.3893,109.883 76.056,109.383 75.5,109C 65.4834,108.832 55.4834,108.332 45.5,107.5C 56.8448,106.256 68.1781,106.256 79.5,107.5 Z"/></g>
<g><path style="opacity:1" fill="#a59bc5" d="M 43.5,95.5 C 43.5,98.5 43.5,101.5 43.5,104.5C 54.8382,104.333 66.1716,104.5 77.5,105C 78.3805,105.708 79.0472,106.542 79.5,107.5C 68.1781,106.256 56.8448,106.256 45.5,107.5C 55.4834,108.332 65.4834,108.832 75.5,109C 76.056,109.383 76.3893,109.883 76.5,110.5C 75.8333,110.5 75.1667,110.5 74.5,110.5C 64.1667,110.5 53.8333,110.5 43.5,110.5C 42.4949,112.704 42.1616,115.704 42.5,119.5C 41.1667,119.5 39.8333,119.5 38.5,119.5C 38.5,112.5 38.5,105.5 38.5,98.5C 39.1515,99.0906 39.8182,99.7573 40.5,100.5C 41.0014,98.3449 42.0014,96.6782 43.5,95.5 Z"/></g>
<g><path style="opacity:1" fill="#a7b1d0" d="M 3.5,72.5 C 3.5,77.1667 3.5,81.8333 3.5,86.5C 3.5,91.5 3.5,96.5 3.5,101.5C 3.80404,104.522 4.30404,107.522 5,110.5C 5.41395,110.957 5.91395,111.291 6.5,111.5C 7.17189,110.051 7.83855,108.718 8.5,107.5C 12.8333,111.167 16.8333,115.167 20.5,119.5C 19.0695,119.579 17.7362,119.246 16.5,118.5C 16.1667,119 15.8333,119.5 15.5,120C 16.7073,121.3 17.3739,122.8 17.5,124.5C 12.1701,120.003 7.3368,115.003 3,109.5C 2.17347,96.9931 2.34014,84.6597 3.5,72.5 Z"/></g>
<g><path style="opacity:1" fill="#8fa1ca" d="M 79.5,107.5 C 84.5,111.833 89.1667,116.5 93.5,121.5C 92.0695,121.579 90.7362,121.246 89.5,120.5C 88.5713,121.689 88.238,123.022 88.5,124.5C 83.5,120.167 78.8333,115.5 74.5,110.5C 75.1667,110.5 75.8333,110.5 76.5,110.5C 77.209,111.404 78.209,111.737 79.5,111.5C 79.5,110.167 79.5,108.833 79.5,107.5 Z"/></g>
<g><path style="opacity:1" fill="#55a5d0" d="M 93.5,121.5 C 97.1667,124.5 100.5,127.833 103.5,131.5C 100.821,131.327 98.4872,130.327 96.5,128.5C 96.1667,128.833 95.8333,129.167 95.5,129.5C 97.297,130.695 98.297,132.362 98.5,134.5C 94.8333,131.5 91.5,128.167 88.5,124.5C 88.238,123.022 88.5713,121.689 89.5,120.5C 90.7362,121.246 92.0695,121.579 93.5,121.5 Z"/></g>
<g><path style="opacity:1" fill="#51a6d3" d="M 20.5,119.5 C 26.1667,124.5 31.5,129.833 36.5,135.5C 36.8333,136.167 37.1667,136.833 37.5,137.5C 34.4633,135.814 33.13,136.814 33.5,140.5C 27.8333,135.5 22.5,130.167 17.5,124.5C 17.3739,122.8 16.7073,121.3 15.5,120C 15.8333,119.5 16.1667,119 16.5,118.5C 17.7362,119.246 19.0695,119.579 20.5,119.5 Z"/></g>
<g><path style="opacity:1" fill="#2e97cc" d="M 38.5,119.5 C 39.8333,119.5 41.1667,119.5 42.5,119.5C 42.5,124.167 42.5,128.833 42.5,133.5C 41.0001,134.625 39.6668,135.959 38.5,137.5C 38.5,131.5 38.5,125.5 38.5,119.5 Z"/></g>
<g><path style="opacity:0.184" fill="#dcf0fe" d="M 37.5,76.5 C 38.4794,79.6248 38.8128,82.9581 38.5,86.5C 38.5,90.5 38.5,94.5 38.5,98.5C 38.5,105.5 38.5,112.5 38.5,119.5C 38.5,125.5 38.5,131.5 38.5,137.5C 38.1667,137.5 37.8333,137.5 37.5,137.5C 37.1667,136.833 36.8333,136.167 36.5,135.5C 37.4971,116.007 37.8304,96.3404 37.5,76.5 Z"/></g>
<g><path style="opacity:1" fill="#0b9cde" d="M 42.5,133.5 C 42.298,135.95 42.6314,138.283 43.5,140.5C 42.0821,142.308 40.0821,142.975 37.5,142.5C 36.4863,141.326 35.153,140.66 33.5,140.5C 33.13,136.814 34.4633,135.814 37.5,137.5C 37.8333,137.5 38.1667,137.5 38.5,137.5C 39.6668,135.959 41.0001,134.625 42.5,133.5 Z"/></g>
<g><path style="opacity:0.701" fill="#9cd4f1" d="M 43.5,110.5 C 43.0279,120.333 43.5279,130 45,139.5C 64.3623,139.033 83.529,138.699 102.5,138.5C 103.757,139.623 103.424,140.289 101.5,140.5C 100.833,140.5 100.167,140.5 99.5,140.5C 80.8333,140.5 62.1667,140.5 43.5,140.5C 42.6314,138.283 42.298,135.95 42.5,133.5C 42.5,128.833 42.5,124.167 42.5,119.5C 42.1616,115.704 42.4949,112.704 43.5,110.5 Z"/></g>
<g><path style="opacity:1" fill="#41a5da" d="M 103.5,131.5 C 106.5,133.833 109.167,136.5 111.5,139.5C 111.167,139.5 110.833,139.5 110.5,139.5C 107.979,139.44 105.646,140.106 103.5,141.5C 102.584,141.457 101.917,141.124 101.5,140.5C 103.424,140.289 103.757,139.623 102.5,138.5C 100.833,137.5 99.5,136.167 98.5,134.5C 98.297,132.362 97.297,130.695 95.5,129.5C 95.8333,129.167 96.1667,128.833 96.5,128.5C 98.4872,130.327 100.821,131.327 103.5,131.5 Z"/></g>
<g><path style="opacity:1" fill="#099cda" d="M 110.5,139.5 C 110.5,140.833 110.5,142.167 110.5,143.5C 102.833,143.5 95.1667,143.5 87.5,143.5C 87.5,142.833 87.5,142.167 87.5,141.5C 91.7016,141.817 95.7016,141.483 99.5,140.5C 100.167,140.5 100.833,140.5 101.5,140.5C 101.917,141.124 102.584,141.457 103.5,141.5C 105.646,140.106 107.979,139.44 110.5,139.5 Z"/></g>
<g><path style="opacity:1" fill="#6cb5d5" d="M 110.5,139.5 C 110.833,139.5 111.167,139.5 111.5,139.5C 111.5,141.5 111.5,143.5 111.5,145.5C 86.8311,145.667 62.1644,145.5 37.5,145C 35.9586,143.629 34.6253,142.129 33.5,140.5C 35.153,140.66 36.4863,141.326 37.5,142.5C 39.9479,143.473 42.6146,143.806 45.5,143.5C 59.5,143.5 73.5,143.5 87.5,143.5C 95.1667,143.5 102.833,143.5 110.5,143.5C 110.5,142.167 110.5,140.833 110.5,139.5 Z"/></g>
<g><path style="opacity:1" fill="#0a9adb" d="M 87.5,141.5 C 87.5,142.167 87.5,142.833 87.5,143.5C 73.5,143.5 59.5,143.5 45.5,143.5C 59.1267,141.518 73.1267,140.851 87.5,141.5 Z"/></g>
<g><path style="opacity:1" fill="#1398d0" d="M 43.5,140.5 C 62.1667,140.5 80.8333,140.5 99.5,140.5C 95.7016,141.483 91.7016,141.817 87.5,141.5C 73.1267,140.851 59.1267,141.518 45.5,143.5C 42.6146,143.806 39.9479,143.473 37.5,142.5C 40.0821,142.975 42.0821,142.308 43.5,140.5 Z"/></g>
</svg>
