<!DOCTYPE svg PUBLIC "-//W3C//DTD SVG 1.1//EN" "http://www.w3.org/Graphics/SVG/1.1/DTD/svg11.dtd">

<!-- Uploaded to: SVG Repo, www.svgrepo.com, Transformed by: SVG Repo Mixer Tools -->
<svg fill="#ffffff" width="24" height="24" viewBox="0 0 24 24" xmlns="http://www.w3.org/2000/svg" stroke="none">

<g id="SVGRepo_bgCarrier" stroke-width="0"/>

<g id="SVGRepo_tracerCarrier" stroke-linecap="round" stroke-linejoin="round"/>

<g id="SVGRepo_iconCarrier">

<path d="M3,4V16a1,1,0,0,0,1,1H9l3,4,3-4h5a1,1,0,0,0,1-1V4a1,1,0,0,0-1-1H4A1,1,0,0,0,3,4ZM8,7h8a1,1,0,0,1,0,2H8A1,1,0,0,1,8,7Zm0,5h4a1,1,0,0,1,0,2H8a1,1,0,0,1,0-2Z"/>

</g>

</svg>